<svg aria-hidden="true" style="position:absolute;width:0;height:0;overflow:hidden" xmlns="http://www.w3.org/2000/svg"><defs><symbol id="icon-close" viewBox="0 0 32 32"><path stroke-linejoin="round" stroke-linecap="round" stroke-width="2.5" d="M24 8 8 24M8 8l16 16"/></symbol><symbol id="icon-eye-off" viewBox="0 0 32 32"><path stroke-linejoin="round" stroke-linecap="round" stroke-width="3.2" d="M23.92 23.92A13.511 13.511 0 0 1 16 26.656C6.656 26.656 1.328 16 1.328 16c1.648-3.104 3.952-5.792 6.736-7.936M13.2 5.648c.912-.224 1.856-.32 2.8-.32C25.328 5.328 30.656 16 30.656 16a24.437 24.437 0 0 1-2.88 4.24m-8.96-1.424c-.368.4-.8.704-1.296.928s-1.024.336-1.552.352a4.326 4.326 0 0 1-1.568-.288 4.255 4.255 0 0 1-1.344-.88 4.443 4.443 0 0 1-.88-1.344 4.326 4.326 0 0 1-.288-1.568c.016-.528.128-1.056.352-1.552s.528-.928.928-1.296M1.328 1.328l29.328 29.328"/></symbol><symbol id="icon-eye-on" viewBox="0 0 32 32"><path d="M16 6C9.021 6 2.972 10.064 0 16c2.972 5.936 9.021 10 16 10s13.027-4.064 16-10c-2.972-5.936-9.021-10-16-10zm7.889 5.303A15.212 15.212 0 0 1 28.559 16a15.223 15.223 0 0 1-4.67 4.697C21.527 22.204 18.799 23 16 23s-5.527-.796-7.889-2.303A15.212 15.212 0 0 1 3.441 16a15.223 15.223 0 0 1 5.041-4.925 8 8 0 1 0 15.036 0c.124.074.248.15.371.228zM16 13a3 3 0 1 1-6 0 3 3 0 0 1 6 0z"/></symbol><symbol id="icon-heart" viewBox="0 0 32 32"><path stroke-linejoin="round" stroke-width="2.462" d="M25.403 4.554a7.328 7.328 0 0 0-2.806-.566 7.446 7.446 0 0 0-5.194 2.154L16 7.557l-1.415-1.415a7.322 7.322 0 0 0-10.376 0 7.324 7.324 0 0 0 0 10.376l1.415 1.415 10.375 10.363 11.778-11.778a7.25 7.25 0 0 0 1.588-2.388 7.283 7.283 0 0 0 .566-2.806c0-.96-.197-1.908-.566-2.806a7.175 7.175 0 0 0-1.588-2.375 7.396 7.396 0 0 0-2.375-1.588z"/></symbol><symbol id="icon-book" viewBox="0 0 32 32"><path stroke-linejoin="round" stroke-width="3" d="M24.52 4c-2.98 0-4.48 0-5.62.58-1 .5-1.82 1.32-2.32 2.32C16 8.04 16 9.54 16 12.52V28l.12-.2c.92-1.4 1.4-2.1 2-2.6a5.45 5.45 0 0 1 1.84-.98c.76-.22 1.6-.22 3.26-.22h1.84c1.5 0 2.24 0 2.8-.3.5-.26.92-.66 1.18-1.16.28-.58.28-1.32.28-2.82V8.26c0-1.5 0-2.24-.28-2.82-.26-.5-.68-.9-1.18-1.16C27.3 4 26.56 4 25.06 4h-.54zM7.46 4c2.98 0 4.48 0 5.62.58 1 .5 1.82 1.32 2.32 2.32.6 1.14.6 2.64.6 5.62V28l-.14-.2c-.92-1.4-1.4-2.1-2-2.6a5.45 5.45 0 0 0-1.84-.98c-.76-.22-1.6-.22-3.26-.22H6.92c-1.5 0-2.24 0-2.8-.3-.5-.26-.92-.66-1.18-1.16-.28-.58-.28-1.32-.28-2.82V8.26c0-1.5 0-2.24.28-2.82.26-.5.68-.9 1.18-1.16C4.68 4 5.42 4 6.92 4h.54z"/></symbol><symbol id="icon-rating" viewBox="0 0 32 32"><path d="m15.1 1.66-3.78 7.16c-.14.28-.4.46-.7.52l-7.98 1.38c-.8.14-1.1 1.1-.54 1.68l5.64 5.8c.22.24.32.54.26.84l-1.14 8.02c-.12.8.7 1.4 1.42 1.04l7.26-3.58c.28-.12.62-.12.9 0l7.26 3.58a.99.99 0 0 0 1.42-1.04l-1.14-8.02c-.06-.3.04-.6.26-.84l5.64-5.8a.994.994 0 0 0-.54-1.68l-7.98-1.38a.983.983 0 0 1-.7-.52l-3.78-7.16c-.38-.7-1.4-.7-1.78 0z"/><path d="m11.32 8.82 3.78-7.16c.38-.7 1.4-.7 1.78 0l3.78 7.16c.14.28.4.46.7.52l7.98 1.38c.8.14 1.1 1.1.54 1.68l-5.64 5.8c-.22.24-.32.54-.26.84l1.14 8.02c.12.8-.7 1.4-1.42 1.04l-7.26-3.58a1.17 1.17 0 0 0-.9 0L8.28 28.1a.99.99 0 0 1-1.42-1.04L8 19.04c.06-.3-.04-.6-.26-.84L2.1 12.4a.994.994 0 0 1 .54-1.68l7.98-1.38c.3-.06.56-.24.7-.52zm2.14 1.12c-.5.94-1.4 1.58-2.44 1.76l-5.36.94 3.8 3.9c.74.76 1.08 1.8.92 2.84l-.78 5.4 4.88-2.4c.96-.48 2.06-.48 3.02 0l4.88 2.4-.78-5.4c-.16-1.04.18-2.08.92-2.84l3.8-3.9-5.36-.94a3.411 3.411 0 0 1-2.44-1.76L16 5.14l-2.54 4.8z"/></symbol><symbol id="icon-ukraine" viewBox="0 0 32 32"><path fill="#ffda44" style="fill:var(--color1, #ffda44)" d="M32 16c0 8.834-7.166 16-16 16-8.846 0-16-7.166-16-16C0 7.154 7.154 0 16 0c8.834 0 16 7.154 16 16z"/><path fill="#338af3" style="fill:var(--color2, #338af3)" d="M0 16C0 7.154 7.154 0 16 0c8.834 0 16 7.154 16 16H0z"/></symbol><symbol id="icon-arrow" viewBox="0 0 32 32"><path stroke-linejoin="round" stroke-linecap="round" stroke-width="3.2" d="M20 4h1.6c2.24 0 3.36 0 4.208.432.752.384 1.36.992 1.744 1.744C28 7.024 28 8.144 28 10.4v11.2c0 2.24 0 3.36-.448 4.208a3.994 3.994 0 0 1-1.744 1.744C24.96 28 23.84 28 21.6 28H20M13.328 9.328 20 16l-6.672 6.656M4 16h16"/></symbol><symbol id="icon-cancel-circle" viewBox="0 0 32 32"><path d="M16 0C7.163 0 0 7.163 0 16s7.163 16 16 16 16-7.163 16-16S24.837 0 16 0zm0 29C8.82 29 3 23.18 3 16S8.82 3 16 3s13 5.82 13 13-5.82 13-13 13z"/><path d="m21 8-5 5-5-5-3 3 5 5-5 5 3 3 5-5 5 5 3-3-5-5 5-5z"/></symbol><symbol id="icon-select" viewBox="0 0 55 32"><path stroke-linejoin="round" stroke-linecap="round" stroke-width="9.137" d="m4.569 4.569 22.844 22.844L50.257 4.569"/></symbol></defs></svg>